<svg width="24" height="24" viewBox="0 0 24 24" fill="none" xmlns="http://www.w3.org/2000/svg">
<g id="icon / jam-icons / outline &#38; logos / accessibility">
<rect x="1" y="1" width="22" height="22" rx="11" stroke="#E2E8F0" stroke-width="2"/>
<path id="Vector" d="M11.9097 15.016L11.5857 18.103C11.572 18.2336 11.5326 18.3602 11.4699 18.4756C11.4071 18.591 11.3223 18.6929 11.2202 18.7755C11.1181 18.8581 11.0007 18.9197 10.8748 18.957C10.7489 18.9942 10.6168 19.0063 10.4862 18.9925C10.3556 18.9787 10.229 18.9393 10.1137 18.8766C9.99827 18.8139 9.89637 18.7291 9.81378 18.627C9.73118 18.5249 9.6695 18.4075 9.63226 18.2816C9.59502 18.1556 9.58295 18.0236 9.59674 17.893L10.3197 11.01H7.00974C6.74413 11.01 6.48939 10.9045 6.30157 10.7167C6.11375 10.5289 6.00824 10.2741 6.00824 10.0085C6.00824 9.74289 6.11375 9.48815 6.30157 9.30033C6.48939 9.11251 6.74413 9.007 7.00974 9.007H17.0097C17.2754 9.007 17.5301 9.11251 17.7179 9.30033C17.9057 9.48815 18.0112 9.74289 18.0112 10.0085C18.0112 10.2741 17.9057 10.5289 17.7179 10.7167C17.5301 10.9045 17.2754 11.01 17.0097 11.01H13.6997L14.4227 17.895C14.4411 18.0279 14.4325 18.1632 14.3975 18.2927C14.3626 18.4223 14.3019 18.5435 14.2191 18.6491C14.1364 18.7548 14.0332 18.8427 13.9158 18.9076C13.7984 18.9726 13.6691 19.0133 13.5357 19.0273C13.4022 19.0414 13.2673 19.0284 13.139 18.9892C13.0106 18.9501 12.8915 18.8855 12.7886 18.7994C12.6857 18.7132 12.6012 18.6073 12.54 18.4878C12.4789 18.3684 12.4424 18.2378 12.4327 18.104L12.1097 15.016H11.9097ZM12.0097 9.006C10.9047 9.006 10.0097 8.109 10.0097 7.003C10.0097 5.897 10.9047 5 12.0097 5C13.1147 5 14.0097 5.897 14.0097 7.003C14.01 7.53379 13.7995 8.04296 13.4244 8.41857C13.0494 8.79417 12.5405 9.00547 12.0097 9.006Z" fill="#E2E8F0"/>
</g>
</svg>
