<svg width="25" height="24" viewBox="0 0 25 24" fill="none" xmlns="http://www.w3.org/2000/svg">
<g id="icon / jam-icons / outline &#38; logos / arrow-right">
<path id="Vector" d="M16.386 10.6569L12.436 6.70692C12.2539 6.51832 12.1531 6.26571 12.1554 6.00352C12.1577 5.74132 12.2628 5.49051 12.4482 5.3051C12.6336 5.11969 12.8845 5.01452 13.1466 5.01224C13.4088 5.00997 13.6614 5.11076 13.85 5.29292L19.507 10.9499C19.6002 11.0426 19.6742 11.1527 19.7246 11.2741C19.7751 11.3954 19.8011 11.5255 19.8011 11.6569C19.8011 11.7883 19.7751 11.9184 19.7246 12.0398C19.6742 12.1611 19.6002 12.2713 19.507 12.3639L13.85 18.0209C13.7578 18.1164 13.6475 18.1926 13.5255 18.245C13.4034 18.2974 13.2722 18.325 13.1395 18.3262C13.0067 18.3273 12.875 18.302 12.7521 18.2517C12.6292 18.2015 12.5175 18.1272 12.4237 18.0333C12.3298 17.9394 12.2555 17.8278 12.2052 17.7049C12.1549 17.582 12.1296 17.4503 12.1308 17.3175C12.132 17.1847 12.1595 17.0535 12.2119 16.9315C12.2644 16.8095 12.3405 16.6992 12.436 16.6069L16.386 12.6569H6.80005C6.53483 12.6569 6.28048 12.5516 6.09294 12.364C5.90541 12.1765 5.80005 11.9221 5.80005 11.6569C5.80005 11.3917 5.90541 11.1373 6.09294 10.9498C6.28048 10.7623 6.53483 10.6569 6.80005 10.6569H16.386Z" fill="#E2E8F0"/>
</g>
</svg>
